<svg id="Layer_1" data-name="Layer 1" xmlns="http://www.w3.org/2000/svg" viewBox="0 0 150 150"><defs><style>.cls-1{fill:#f7f7f5;}.cls-2{fill:#3c3b5c;}.cls-3{fill:#eb5160;}.cls-4{fill:#fc7588;}.cls-5{fill:#e5e5e5;}.cls-6{fill:#d84e62;}</style></defs><title>e2e_home_automation</title><polygon class="cls-1" points="37.4 59.68 31.67 60.81 32.27 70.71 39.34 76.26 47.76 74.84 61 69.86 102.56 54.01 106.81 47.87 104.25 37.7 80.83 46.53 54.21 56.57 37.4 59.68"/><path class="cls-2" d="M42.25,78.47h0A13.12,13.12,0,0,1,33,74.11C30.2,70.8,29.28,66,30.26,59.89a1.53,1.53,0,1,1,3,.48c-.84,5.21-.14,9.17,2.05,11.76a10,10,0,0,0,6.92,3.28,1.53,1.53,0,0,1,0,3.06Z"/><path class="cls-2" d="M42.66,78.39,35.33,59.24a1.53,1.53,0,0,1,2.86-1.09l6.24,16.31L90.7,57.07a1.53,1.53,0,0,1,1.08,2.86Z"/><line class="cls-1" x1="96.02" y1="56.72" x2="95.84" y2="56.79"/><path class="cls-2" d="M95.84,58.32a1.53,1.53,0,0,1-.54-3l.18-.07a1.53,1.53,0,0,1,1.08,2.86l-.18.07A1.53,1.53,0,0,1,95.84,58.32Z"/><path class="cls-2" d="M100.77,56.44a1.53,1.53,0,0,1-.54-3,7.79,7.79,0,0,0,4.55-10l-2-5.25a1.53,1.53,0,0,1,2.86-1.07l2,5.25a10.85,10.85,0,0,1-6.33,13.93A1.53,1.53,0,0,1,100.77,56.44Z"/><path class="cls-3" d="M19.87,54.5l2.44,6.7,31.9-4.63,50-18.87-1.89-4.4A9.82,9.82,0,0,0,89.86,28Z"/><path class="cls-2" d="M21.3,62.89l-3.38-9.28,71.4-27a11.33,11.33,0,0,1,14.44,6.13l2.52,5.87L54.43,58.08Zm.53-7.49,1.49,4.11,30.5-4.42,48.39-18.25L101,33.91A8.28,8.28,0,0,0,90.4,29.43Z"/><rect class="cls-4" x="89" y="28.44" width="3.37" height="20.08" rx="1.68" ry="1.68" transform="translate(86.4 136.89) rotate(-110.5)"/><polyline class="cls-1" points="87.93 87.47 79.47 63.49 71.75 66.39 80.97 93.13"/><path class="cls-2" d="M81,94.65a1.53,1.53,0,0,1-1.45-1L69.82,65.48l10.57-4,9,25.45a1.53,1.53,0,0,1-2.88,1L78.54,65.47,73.68,67.3l8.74,25.33a1.53,1.53,0,0,1-1.45,2Z"/><polyline class="cls-1" points="93.52 92.48 116.58 94.78 116.58 103.22 91.48 100.93"/><path class="cls-2" d="M118.11,104.9l-26.78-2.45a1.53,1.53,0,0,1,.28-3l23.44,2.14V96.16L93.37,94a1.53,1.53,0,1,1,.3-3l24.44,2.43Z"/><polygon class="cls-5" points="78.54 65.47 73.69 67.29 75.02 71.18 79.93 69.39 78.54 65.47"/><polygon class="cls-5" points="115.06 96.19 115.06 98.19 95.22 96.19 95.39 94.23 115.06 96.19"/><circle class="cls-3" cx="87.6" cy="94.77" r="7"/><path class="cls-2" d="M87.6,103.3a8.52,8.52,0,1,1,8.52-8.52A8.53,8.53,0,0,1,87.6,103.3Zm0-14a5.47,5.47,0,1,0,5.47,5.47A5.47,5.47,0,0,0,87.6,89.31Z"/><circle class="cls-4" cx="89.17" cy="97.78" r="1.56" transform="translate(-37.6 59.83) rotate(-30.97)"/><path class="cls-3" d="M128.35,84.65H130a0,0,0,0,1,0,0v28.53a0,0,0,0,1,0,0h-1.65a11.77,11.77,0,0,1-11.77-11.77v-5A11.77,11.77,0,0,1,128.35,84.65Z"/><path class="cls-2" d="M131.53,114.71h-5.95a10.54,10.54,0,0,1-10.52-10.52V93.64a10.54,10.54,0,0,1,10.52-10.52h5.95Zm-5.95-28.53a7.47,7.47,0,0,0-7.47,7.47v10.54a7.47,7.47,0,0,0,7.47,7.47h2.89V86.17Z"/><path class="cls-6" d="M21.81,55.41,90.46,29.47s5.19-2.32,8.78,2.08L23.33,59.48Z"/><path class="cls-5" d="M33.15,61.2a20.11,20.11,0,0,0,.17,6.75L38,66.36l-2.09-5.57Z"/><polygon class="cls-5" points="103.33 39.66 54.58 58.06 38.97 60.32 41 65.52 104.03 41.45 103.33 39.66"/><path class="cls-6" d="M128.43,86.17h-3.34s-6.52.5-6.94,7.18V94.7l10.28-.16Z"/><path class="cls-6" d="M87.6,91.83A7.73,7.73,0,0,1,93,94a5.46,5.46,0,0,0-10.82,0A7.73,7.73,0,0,1,87.6,91.83Z"/><path class="cls-4" d="M124.9,110.87a1.16,1.16,0,0,1-.26,0,7.41,7.41,0,0,1-5.51-6.58,1.15,1.15,0,0,1,1.05-1.23,1.13,1.13,0,0,1,1.23,1h0c0,.15.37,3.74,3.75,4.53a1.15,1.15,0,0,1-.26,2.26Z"/></svg>