<svg id="Layer_1" data-name="Layer 1" xmlns="http://www.w3.org/2000/svg" viewBox="0 0 150 150"><defs><style>.cls-1{fill:#f7f7f5;}.cls-2{fill:#e5e5e5;}.cls-3{fill:#3c3b5c;}.cls-4{fill:#eb5160;}</style></defs><title>e2e_beauty1</title><polygon class="cls-1" points="38.23 49.65 47.89 30.96 69.89 25.32 84.3 28.76 91.2 21.53 105.75 22.98 112.1 26.86 116.47 32.42 118.55 42.16 118.55 49.65 113.19 57.95 117.39 68.31 118.55 80.64 112.28 96.1 101.75 107.72 96 112.56 95.14 117.49 96.41 119.24 91.51 124.73 62.51 128.19 62.83 113.64 57.23 111.47 50.55 112.95 36.66 115.88 35.4 104.83 31.9 90.8 28.27 80.64 36.45 56.84 38.23 49.65"/><path class="cls-2" d="M42.06,43.3a117.46,117.46,0,0,1-1.82,20.45A61.86,61.86,0,0,1,33.56,82s3.4,5.41,0,9.6a3.25,3.25,0,0,1,1.95,5s4.33.2,2.3,5.49S35.34,120.68,44,114.33c0,0-6.73,6.64-11.26-1.18l.4-10.29-3.8-3.74V95.37l-1.67-1.84,1.49-6.21L24.05,84.7,22.83,81,33,65.83,38.26,42.9l3.79-2.53Z"/><path class="cls-3" d="M62.5,130.64l-.26,0a1.6,1.6,0,0,1-1.33-1.84c1.67-10.2-.14-13.81-1.95-15-3-2.07-8.34,1-8.39,1l-.19.1c-8.54,3.65-14.2,4.14-17.31,1.48-3.65-3.12-2.14-9.11-1.49-11.66l.05-.22c.33-1.33-.33-2-2-3.12A5.3,5.3,0,0,1,28.07,100c-.79-1.12-.34-2.33.42-3.35a3.76,3.76,0,0,1-1.15-1.16,4.09,4.09,0,0,1,0-4,6.34,6.34,0,0,0,.7-2.77,9.15,9.15,0,0,1-6.7-5.51,1.61,1.61,0,0,1,.28-1.58c8.08-9.63,10.35-16.9,11.9-27.75,1.78-12.46,7.71-15,8-15.06a1.6,1.6,0,0,1,1.21,3c-.14.07-4.53,2.24-6,12.54-1.56,10.9-4,18.76-11.95,28.54a5.92,5.92,0,0,0,4.61,2.79,1.6,1.6,0,0,1,1,.5c.32.34,1.81,2.26-.13,6.62-.24.55-.25.88-.18,1a2.35,2.35,0,0,0,1.51.56,1.61,1.61,0,0,1,.88,2.89,9.11,9.11,0,0,0-1.3,1.21l.21.14c1.41.92,4.33,2.83,3.39,6.59l-.06.22c-.46,1.81-1.67,6.62.46,8.44,1.15,1,4.49,2,13.87-2,.92-.52,7.23-3.92,11.74-.86,3.81,2.59,4.89,8.55,3.31,18.21A1.6,1.6,0,0,1,62.5,130.64Z"/><path class="cls-2" d="M91.2,21.53S111.86,34.16,97,51.6c0,0,5.8-9.83-10.72-24.44Z"/><path class="cls-3" d="M111.07,58.13a1.61,1.61,0,0,1-.43-3.15c.12,0,7.78-2.28,7.71-8.29-.1-8.55-3.15-23-22.46-24.1-.74-.05-6.85-.27-8,7.38a1.6,1.6,0,1,1-3.18-.47C86.33,18.68,96,19.37,96.11,19.38c22.69,1.24,25.36,19.48,25.45,27.26.1,8.51-9.65,11.31-10.06,11.42A1.6,1.6,0,0,1,111.07,58.13Z"/><path class="cls-2" d="M42.06,38.56,47.89,31l4.16-1.9s-5.73,28,19.25,39.53l.82,1.66H60.46L48.47,62,42.33,46.55Z"/><path class="cls-3" d="M74.06,72.23a1.6,1.6,0,0,1-.59-.11,3.88,3.88,0,0,0-1.25-.26c-14.28,1.62-21.94-4.52-25.85-10-6.74-9.39-6.72-22.34-4.82-26.35,3.12-6.6,22.19-17.66,43.4-8.23,6.89,3.06,11.37,7.37,13.31,12.8a20.92,20.92,0,0,1-.86,15.22,1.6,1.6,0,0,1-2.87-1.43c.05-.11,3-6.3.69-12.74-1.65-4.56-5.55-8.23-11.58-10.91-19.55-8.69-36.78,1.55-39.2,6.67C43.06,39.84,42.93,51.58,49,60c5,6.92,12.69,9.83,23,8.64h.13a6.91,6.91,0,0,1,2.58.49,1.61,1.61,0,0,1-.59,3.1Z"/><path class="cls-3" d="M92.23,126.33a1.6,1.6,0,0,1-1.16-.49A11.86,11.86,0,0,1,87.43,117a16.26,16.26,0,0,1,3.73-9.05c-10.1-1.62-15.33-6.51-18-10.52a1.6,1.6,0,1,1,2.68-1.77c3.68,5.55,10,8.74,18.73,9.48a1.6,1.6,0,0,1,.93,2.8s-4.68,4.24-4.87,9.21a8.78,8.78,0,0,0,2.75,6.51,1.6,1.6,0,0,1-1.16,2.72Z"/><path class="cls-3" d="M96.14,120a1.6,1.6,0,0,1-1.34-.71,6.74,6.74,0,0,1-1-5.66c1.16-4.19,6.32-6.91,7.18-7.34,1-.69,13.22-9.39,15.71-27.57a29.65,29.65,0,0,0,.27-5,1.6,1.6,0,0,1,3.21-.1,32.92,32.92,0,0,1-.3,5.51c-2.79,20.4-16.63,29.5-17.22,29.88l-.18.1c-1.31.63-4.88,2.81-5.58,5.36a3.54,3.54,0,0,0,.61,3A1.6,1.6,0,0,1,96.14,120Zm5.61-12.32h0Z"/><path class="cls-3" d="M114,61.65a1.6,1.6,0,0,1-1.31-.68,25.09,25.09,0,0,0-9.08-7.9A1.6,1.6,0,0,1,105,50.13a28.13,28.13,0,0,1,10.39,9A1.6,1.6,0,0,1,114,61.65Z"/><polygon class="cls-1" points="80.98 85.39 77.59 76.82 131.14 58.6 132.6 62.31 80.98 85.39"/><path class="cls-3" d="M81,87a1.61,1.61,0,0,1-1.49-1L76.1,77.41a1.61,1.61,0,0,1,1-2.11l53.55-18.22a1.61,1.61,0,0,1,2,.93l1.46,3.7a1.61,1.61,0,0,1-.84,2.05L81.63,86.85A1.62,1.62,0,0,1,81,87ZM79.7,77.8l2.15,5.44,48.69-21.77-.34-.85Z"/><rect class="cls-1" x="66.16" y="75.04" width="9.21" height="18.87" transform="translate(18.21 181.33) rotate(-111.56)"/><path class="cls-3" d="M63.68,93.83a1.61,1.61,0,0,1-1.49-1l-3.38-8.56a1.61,1.61,0,0,1,.9-2.08l17.55-6.93a1.61,1.61,0,0,1,2.08.9l3.38,8.56a1.61,1.61,0,0,1-.9,2.08L64.27,93.71A1.61,1.61,0,0,1,63.68,93.83Zm-1.3-9.27,2.21,5.58,14.56-5.75-2.2-5.58Z"/><path class="cls-4" d="M63.68,92.22s-10,6.41-19.36,2.7c0,0,2.92-8,16-11.26Z"/><path class="cls-3" d="M50.63,97.69a18.67,18.67,0,0,1-6.9-1.27,1.6,1.6,0,0,1-.92-2c.13-.36,3.37-8.83,17.1-12.27a1.61,1.61,0,0,1,1.88,1l3.38,8.56a1.61,1.61,0,0,1-.63,1.94A28.51,28.51,0,0,1,50.63,97.69Zm-4-3.7c6.24,1.59,12.53-1.16,15-2.47l-2.34-5.93C51.56,87.85,48,91.82,46.63,94Z"/></svg>