<svg id="Layer_1" data-name="Layer 1" xmlns="http://www.w3.org/2000/svg" viewBox="0 0 150 150"><defs><style>.cls-1{fill:#f7f7f5;}.cls-2{fill:#e5e5e5;}.cls-3{fill:#3c3b5c;}.cls-4{fill:#eb5160;}.cls-5{fill:#d84e62;}.cls-6{fill:#fc7588;}</style></defs><title>e2e_cleaning</title><polygon class="cls-1" points="52.6 55.19 52.6 36.46 57.62 23.05 66.63 16.84 79.59 13.55 90.9 16.02 98.28 20.98 104.09 28.77 106.86 38.67 106.96 51.37 106.96 111.62 104.94 114.49 101 114.49 98.28 112.77 98.28 88.18 98.28 41.46 94.76 30.64 88.94 25.45 78.35 23.05 67.06 27.33 61.97 37.15 61.46 50.87 59.46 54.09 52.6 55.19"/><path class="cls-2" d="M62.17,21.84,58.9,23.71l-5,7.92L52.23,44.69l.37,10.5L56.7,53.5S54.35,29,62.17,21.84Z"/><path class="cls-1" d="M76,51.37v74.55H32.31S11.75,54.31,76,51.37Z"/><path class="cls-3" d="M77.6,127.5H31.12l-.33-1.15a98,98,0,0,1-3.1-20.59c-.49-10.74.69-26,9.15-37.77,8.09-11.26,21.24-17.39,39.1-18.2l1.65-.08Zm-44.06-3.16h40.9V53c-16,1.06-27.77,6.7-35,16.79C25.78,88.81,32,118.2,33.53,124.34Z"/><path class="cls-2" d="M53.43,58.15S20.7,70.42,33.67,124.26H46.08S28.84,95,53.43,58.15Z"/><path class="cls-3" d="M29.22,100.76a1.58,1.58,0,0,1-.39-3.12c12.64-3.19,18.67-7.9,24.32-14.48a1.58,1.58,0,0,1,2.4,2.06c-8.16,9.5-16,13-25.94,15.49A1.6,1.6,0,0,1,29.22,100.76Z"/><path class="cls-3" d="M57.66,81.31a1.51,1.51,0,0,1-.84-.25,1.63,1.63,0,0,1-.42-2.23v0A1.58,1.58,0,1,1,59,80.57,1.67,1.67,0,0,1,57.66,81.31Zm.06-1.61,1.32.87Zm0,0Zm0,0Z"/><path class="cls-3" d="M60.62,76.18a1.58,1.58,0,0,1-1.42-2.28,53.79,53.79,0,0,0,5.21-21.39A1.58,1.58,0,0,1,66,50.92h0a1.58,1.58,0,0,1,1.58,1.57A56,56,0,0,1,62,75.29,1.58,1.58,0,0,1,60.62,76.18Z"/><circle class="cls-4" cx="69.7" cy="116.37" r="12.07"/><path class="cls-3" d="M69.7,130a13.65,13.65,0,1,1,13.65-13.65A13.67,13.67,0,0,1,69.7,130Zm0-24.14a10.49,10.49,0,1,0,10.49,10.49A10.5,10.5,0,0,0,69.7,105.88Z"/><polygon class="cls-1" points="120.45 127.51 84.71 127.51 87.45 114.49 117.72 114.49 120.45 127.51"/><path class="cls-3" d="M122.4,129.09H82.76l3.4-16.18H119Zm-35.74-3.16H118.5l-2.07-9.86H88.73Z"/><path class="cls-3" d="M107,116.07a1.58,1.58,0,0,1-1.58-1.58V40.92a25.78,25.78,0,0,0-51.56,0V56.54a1.58,1.58,0,0,1-3.16,0V40.92a28.95,28.95,0,0,1,57.89,0v73.57A1.58,1.58,0,0,1,107,116.07Z"/><path class="cls-3" d="M98.28,116.07a1.58,1.58,0,0,1-1.58-1.58v-73a16.83,16.83,0,0,0-33.66,0v12a1.58,1.58,0,0,1-3.16,0v-12a20,20,0,0,1,40,0v73A1.58,1.58,0,0,1,98.28,116.07Z"/><path class="cls-5" d="M62.35,116.37a11.18,11.18,0,0,1,7.33-10.49,10.49,10.49,0,0,0,0,21A11.18,11.18,0,0,1,62.35,116.37Z"/><circle class="cls-6" cx="74.02" cy="121.79" r="1.62" transform="translate(-64.03 157.18) rotate(-73.09)"/><polygon class="cls-2" points="88.72 116.07 86.66 125.92 92.81 125.92 94.87 116.07 88.72 116.07"/></svg>