<svg id="Layer_1" data-name="Layer 1" xmlns="http://www.w3.org/2000/svg" viewBox="0 0 150 150"><defs><style>.cls-1{fill:#eb5160;}.cls-2{fill:#3c3b5c;}.cls-3{fill:#f7f7f5;}.cls-4{fill:#d84e62;}.cls-5{fill:#e5e5e5;}.cls-6{fill:#fc7588;}</style></defs><title>e2e_painting</title><rect class="cls-1" x="52.09" y="40.65" width="84.15" height="24.05" rx="7.73" ry="7.73" transform="translate(64.83 -51.15) rotate(45)"/><path class="cls-2" d="M115.41,90a7.19,7.19,0,0,1-5.1-2.11l-51.4-51.4a7.22,7.22,0,0,1,0-10.2l8.9-8.9a7.22,7.22,0,0,1,10.2,0l51.4,51.4a7.22,7.22,0,0,1,0,10.2l-8.9,8.9A7.19,7.19,0,0,1,115.41,90Zm-3-4.21a4.27,4.27,0,0,0,6,0l8.9-8.9a4.25,4.25,0,0,0,0-6l-51.4-51.4a4.27,4.27,0,0,0-6,0L61,28.42a4.27,4.27,0,0,0,0,6Z"/><path class="cls-2" d="M58.2,88.31a1.48,1.48,0,0,1-1-2.53L64,78.94a6.22,6.22,0,0,1,8-.7l10.24,7.36A1.48,1.48,0,1,1,80.48,88L70.25,80.66a3.25,3.25,0,0,0-4.16.38l-6.84,6.84A1.48,1.48,0,0,1,58.2,88.31Z"/><path class="cls-2" d="M86.45,91.7a1.49,1.49,0,0,1-1-.43A1.47,1.47,0,0,1,85,90.22a1.94,1.94,0,0,1,0-.29,1.74,1.74,0,0,1,.09-.27,1.72,1.72,0,0,1,.13-.26,1.89,1.89,0,0,1,.19-.22,1.77,1.77,0,0,1,.22-.19l.26-.13.27-.09a1.52,1.52,0,0,1,1.34.41,1.48,1.48,0,0,1-1.05,2.53Z"/><path class="cls-2" d="M112.19,108.51a6.21,6.21,0,0,1-3.57-1.13l-18-12.52a1.48,1.48,0,1,1,1.69-2.43l18,12.52a3.26,3.26,0,0,0,4.18-.36l12.44-12.44a3.26,3.26,0,0,0,0-4.61l-4.07-4.07a1.48,1.48,0,1,1,2.1-2.1L129,85.45a6.23,6.23,0,0,1,0,8.8l-12.44,12.44A6.21,6.21,0,0,1,112.19,108.51Z"/><path class="cls-3" d="M64.25,92.74,34.37,122.63a1.77,1.77,0,0,1-2.5,0l-9.33-9.33a1.77,1.77,0,0,1,0-2.5L52.42,80.91"/><path class="cls-2" d="M33.12,124.63a3.24,3.24,0,0,1-2.3-1l-9.34-9.34a3.26,3.26,0,0,1,0-4.6L51.37,79.86a1.48,1.48,0,0,1,2.1,2.1L23.58,111.84a.29.29,0,0,0,0,.4l9.34,9.34a.29.29,0,0,0,.4,0L63.21,91.7a1.48,1.48,0,0,1,2.1,2.1L35.42,123.68A3.24,3.24,0,0,1,33.12,124.63Z"/><path class="cls-2" d="M66.08,96a1.48,1.48,0,0,1-1-.43L49.57,80.16a1.48,1.48,0,1,1,2.1-2.1L67.13,93.52a1.48,1.48,0,0,1-1,2.53Z"/><path class="cls-4" d="M76.16,19.77a4.14,4.14,0,0,0-6.27-.23l-3.65,3.65,57.88,56.94L127.3,77s3.52-3.1-.83-7Z"/><polygon class="cls-5" points="52.39 83 62.15 92.72 57.12 97.75 47.55 87.84 52.39 83"/><rect class="cls-6" x="107.25" y="68" width="3.63" height="19.48" rx="1.6" ry="1.6" transform="translate(-23.02 99.89) rotate(-45)"/></svg>